<?xml version="1.0" encoding="UTF-8"?><!DOCTYPE svg PUBLIC "-//W3C//DTD SVG 1.1//EN" "http://www.w3.org/Graphics/SVG/1.1/DTD/svg11.dtd"><svg xmlns="http://www.w3.org/2000/svg"><symbol id="aura" viewBox="0 0 512 512"><path d="M320.938 13.28c-16.646 34.584-38.466 60.157-63.094 60.157-24.522 0-47.035-25.275-63.656-59.593.366 39.358-9.71 90.884-30.938 105.125-21.228 14.24-49.64-12.002-78.844-32.126 17.455 34.04 42.095 67.5 29.78 92.28-12.21 24.576-59.172 35.96-92.874 35.626 29.338 19.29 78.842 45.803 78.844 74.188.002 28.384-49.504 53.71-78.844 73 33.702-.333 80.663 11.612 92.876 36.187 12.227 24.61-9.03 56.31-33.75 85.563 44.826-15.413 65.142-5.735 85.374 10.812h31.75c-42.74-35.413-72.062-107.828-72.062-191.563-.002-118.62 58.92-214.906 131.406-214.906 72.488 0 131.406 96.29 131.406 214.907 0 83.74-29.317 156.153-72.062 191.563h27.313c19.847-14.62 39.796-25.65 89.687-9.28-26.233-30.264-42.2-62.484-29.97-87.095 12.257-24.665 56.658-36.612 90.533-36.188-29.4-19.297-75.344-44.584-75.344-73 0-28.415 45.943-54.89 75.342-74.187-33.874.424-78.273-10.962-90.53-35.625-12.315-24.78 9.982-58.24 27.437-92.28-29.202 20.12-57.583 46.385-78.845 32.124-21.262-14.263-31.382-66.13-30.938-105.69zm-68.97 93.75c-19.56 2.543-37.343 25.564-37.343 55.407 0 16.447 5.67 30.986 14 41.032l10.156 12.218-15.593 2.937c-10.815 2.035-18.743 7.737-25.53 17.063-6.79 9.325-11.984 22.344-15.626 37.343-6.585 27.128-8.078 60.24-8.31 89.47h36.093l.656 8.656 9.124 122.563h76.187l8.095-122.5.563-8.72h34.375c-.026-29.592-.44-63.166-6.407-90.5-3.295-15.095-8.287-28.096-15.156-37.313-6.87-9.216-15.133-14.897-27.28-16.78l-15.94-2.47 10.064-12.593c7.97-9.996 13.375-24.36 13.375-40.406-.002-31.817-19.884-55.313-41.44-55.313-2.54 0-3.96-.103-4.03-.094h-.03z"/></symbol><symbol id="sprint" viewBox="0 0 512 512"><path d="M169.53 16.344L259.345 88 337 92.28l-1.03 18.657-161.376-8.906-118.78-4.905 227.28 68.03-197.72 246.75-14.53-17.655-49.22 96.625 248.69-202.78 51.81 11.592-38.78 40.594L270.5 329.5l-57.28 84.125L444.843 273.47 328 241.06l100.22-81.718c1.132.46 2.3.898 3.5 1.22 23.324 6.248 49.764-16.835 59.06-51.533 9.298-34.695-2.08-67.874-25.405-74.124-23.325-6.25-49.765 16.802-59.063 51.5a95.43 95.43 0 0 0-2.875 16.22L169.53 16.343z"/></symbol><symbol id="swordman" viewBox="0 0 512 512"><path d="M467.838 35.848c-53.208 3.518-101.284 8.091-139.14 50.18 9.869 29.563 26.168 65.884 46.613 95.234 20.504 29.436 44.758 50.59 68.61 53.297 35.265-33.057 53.699-112.599 23.917-198.711zM189.8 46.02a70.936 54.43 66.039 0 0-15.987 3.638 70.936 54.43 66.039 0 0-20.931 86.928 70.936 54.43 66.039 0 0 51.62 45.443c2.392 57.507-19.428 43.883-70.534 73.606l15.888 31.69c35.566-13.731 51.844-19.703 69.27-44.317 32.586 93.92-1.874 157.236-23.688 247.078l33.711 4.916c23.698-57.247 55.114-122.355 62.438-181.422 48.937 51.134 77.498 114.641 114.65 169.143l35.82-14.75c-45.81-80.724-65.633-128.371-150.591-262.19 26.819-.194 49.826-6.592 70.683-15.422-7.036-10.105-13.565-20.882-19.529-31.886-28.223 12.083-59.028 16.997-90.14.855a70.936 54.43 66.039 0 0-.118-66.955A70.936 54.43 66.039 0 0 189.8 46.02zM15.47 87.309l3.287 34.09 52.6 107.77 21.568-10.526-52.383-107.325-25.072-24.01zm97.066 139.566L65.78 249.697l3.137 18.496 56.271-27.464-12.652-13.854zm2.318 36.701l-21.568 10.528 16.668 34.15 21.568-10.527-16.668-34.15z"/></symbol></svg>